<?xml version="1.0" encoding="UTF-8"?>
<svg id="_レイヤー_1" data-name="レイヤー_1" xmlns="http://www.w3.org/2000/svg" viewBox="0 0 135.94 142.24">
  <defs>
    <style>
      .cls-1 {
        fill: #b3a78f;
      }

      .cls-2 {
        fill: #f0e0c0;
      }

      .cls-3 {
        fill: #ccbea3;
      }

      .cls-4 {
        fill: #00913a;
      }

      .cls-5 {
        fill: #006934;
      }
    </style>
  </defs>
  <path class="cls-4" d="M24.48,81.68c-6.01,17.73-7.59,33.94-7.6,46.53,14.06-8.64,50.95-33.99,67.11-81.68,6.01-17.73,7.59-33.94,7.6-46.53-14.06,8.64-50.95,33.99-67.11,81.68Z"/>
  <path class="cls-5" d="M50.16,95.7c-6.01,17.73-7.59,33.94-7.6,46.53,14.06-8.64,50.95-33.99,67.11-81.68,6.01-17.73,7.59-33.94,7.6-46.53-14.06,8.64-50.95,33.99-67.11,81.68Z"/>
  <g>
    <polygon class="cls-2" points="93 120.71 .27 85.38 42.94 42.5 135.68 77.83 93 120.71"/>
    <polygon class="cls-1" points="93 125.5 .27 90.17 .27 85.38 93 120.71 93 125.5"/>
    <polygon class="cls-3" points="135.68 82.61 93 125.5 93 120.71 135.68 77.83 135.68 82.61"/>
  </g>
  <g>
    <polygon class="cls-2" points="90.38 115.2 .33 73.48 45.9 33.68 135.94 75.39 90.38 115.2"/>
    <polygon class="cls-1" points="90.05 119.97 0 78.25 .33 73.48 90.38 115.2 90.05 119.97"/>
    <polygon class="cls-3" points="135.61 80.16 90.05 119.97 90.38 115.2 135.94 75.39 135.61 80.16"/>
  </g>
  <g>
    <polygon class="cls-2" points="87.65 110.65 .73 62.76 48.96 26.23 135.88 74.12 87.65 110.65"/>
    <polygon class="cls-1" points="86.98 115.39 .07 67.49 .73 62.76 87.65 110.65 86.98 115.39"/>
    <polygon class="cls-3" points="135.21 78.86 86.98 115.39 87.65 110.65 135.88 74.12 135.21 78.86"/>
  </g>
  <g>
    <polygon class="cls-2" points="84.82 104.82 1.46 50.98 52.12 17.91 135.48 71.75 84.82 104.82"/>
    <polygon class="cls-1" points="83.83 109.5 .46 55.66 1.46 50.98 84.82 104.82 83.83 109.5"/>
    <polygon class="cls-3" points="134.49 76.42 83.83 109.5 84.82 104.82 135.48 71.75 134.49 76.42"/>
  </g>
</svg>